<?xml version="1.0" encoding="UTF-8" standalone="no"?>
<!-- Created with Inkscape (http://www.inkscape.org/) -->

<svg
   width="29.275469mm"
   height="30.736265mm"
   version="1.1"
   viewBox="0 0 29.275469 30.736265"
   id="svg126"
   sodipodi:docname="g104.svg"
   inkscape:version="1.4.2 (f4327f4, 2025-05-13)"
   xmlns:inkscape="http://www.inkscape.org/namespaces/inkscape"
   xmlns:sodipodi="http://sodipodi.sourceforge.net/DTD/sodipodi-0.dtd"
   xmlns="http://www.w3.org/2000/svg"
   xmlns:svg="http://www.w3.org/2000/svg">
  <defs
     id="defs126" />
  <sodipodi:namedview
     id="namedview126"
     pagecolor="#ffffff"
     bordercolor="#000000"
     borderopacity="0.25"
     inkscape:showpageshadow="2"
     inkscape:pageopacity="0.0"
     inkscape:pagecheckerboard="0"
     inkscape:deskcolor="#d1d1d1"
     inkscape:document-units="mm"
     inkscape:zoom="1.6275884"
     inkscape:cx="396.90625"
     inkscape:cy="561.25984"
     inkscape:window-width="3840"
     inkscape:window-height="2066"
     inkscape:window-x="-11"
     inkscape:window-y="-11"
     inkscape:window-maximized="1"
     inkscape:current-layer="svg126" />
  <g
     stroke-miterlimit="2.7"
     stroke-width="0"
     id="g10"
     transform="translate(-108.27713,-40.988829)">
    <text
       transform="rotate(-0.19346)"
       x="12.400454"
       y="88.254677"
       fill="#deaa87"
       font-family="'Century Gothic'"
       font-size="10.361px"
       font-weight="bold"
       stroke="#000000"
       stroke-dashoffset="0.1952"
       stroke-linecap="square"
       style="font-variant-ligatures:normal;font-variant-caps:normal;font-variant-numeric:normal;font-variant-east-asian:normal;white-space:pre;paint-order:fill markers stroke"
       xml:space="preserve"
       id="text9"><tspan
         x="12.400454"
         y="88.254677"
         font-family="'Century Gothic'"
         font-weight="bold"
         stroke-width="0"
         style="font-variant-ligatures:normal;font-variant-caps:normal;font-variant-numeric:normal;font-variant-east-asian:normal"
         id="tspan9"><tspan
           fill="#a7ac93"
           font-size="10.361px"
           style="font-variant-ligatures:normal;font-variant-caps:normal;font-variant-numeric:normal;font-variant-east-asian:normal"
           id="tspan5">P</tspan><tspan
           fill="#668000"
           font-size="12.38px"
           style="font-variant-ligatures:normal;font-variant-caps:normal;font-variant-numeric:normal;font-variant-east-asian:normal"
           id="tspan6">l</tspan><tspan
           fill="#a7ac93"
           font-size="10.361px"
           style="font-variant-ligatures:normal;font-variant-caps:normal;font-variant-numeric:normal;font-variant-east-asian:normal"
           id="tspan8">antWall<tspan
   fill="#668000"
   font-family="'Century Gothic'"
   font-size="10.361px"
   font-weight="bold"
   stroke-width="0"
   style="font-variant-ligatures:normal;font-variant-caps:normal;font-variant-numeric:normal;font-variant-east-asian:normal"
   id="tspan7">K</tspan></tspan></tspan></text>
    <path
       d="m 24.237,62.417 c 0.69435,-1.8887 1.6344,-4.0358 2.8303,-5.5141 1.1958,-1.4783 2.4286,-2.6104 3.9206,-3.6135 1.6006,-1.1372 3.3198,-2.1158 5.0652,-3.0209 0,0 2.206,-0.98391 1.175,-0.36079 -1.031,0.62313 -4.1318,2.4943 -6.0541,3.9399 -1.4525,1.1033 -2.6766,2.4678 -3.6523,3.9856 -0.70609,0.96569 -1.2826,2.0191 -1.6418,3.1533 -0.34758,0.87671 -0.63766,1.5393 -0.82233,2.4648 -0.04837,0.42539 -0.18407,0.11532 -0.35237,-0.03402 -0.29991,-0.26616 -0.33102,-0.67807 -0.46824,-1.0003 z"
       fill="#eef4d7"
       style="paint-order:fill markers stroke"
       id="path9" />
    <path
       d="m 20.541,64.739 c 0.88555,2.3161 1.0827,2.8956 1.3983,4.4677 0.31556,1.5721 0.34796,3.4565 -0.33701,4.9781 -0.68496,1.5215 -1.2788,0.83713 -1.6915,1.9248 0.68513,-0.37914 1.3739,0.55663 1.7427,0.86281 1.4297,-3.5057 1.4068,-3.9219 1.2799,-5.6149 -0.12684,-1.693 -0.36004,-2.4561 -0.60328,-3.377 -0.24324,-0.92091 -1.9004,-5.0927 -3.1573,-6.9052 -3.0373,-4.3797 -2.49,-3.91 -2.3578,-3.3499 0.1322,0.56008 2.7075,4.4843 3.7261,7.0136 z"
       fill="#668000"
       style="paint-order:fill markers stroke"
       id="path10" />
    <text
       transform="matrix(0.21546,0,0,0.21546,12.954804,93.84266)"
       fill="#677821"
       font-family="'Century Gothic'"
       font-size="26.667px"
       font-weight="bold"
       stroke="#324278"
       stroke-dashoffset="0.1952"
       stroke-linecap="square"
       style="white-space:pre;shape-inside:url(#rect1-9);paint-order:fill markers stroke"
       xml:space="preserve"
       id="text10"
       inkscape:export-filename="text10.svg"
       inkscape:export-xdpi="96"
       inkscape:export-ydpi="96"><tspan
         x="0"
         y="0"
         id="tspan1">COST Action 24116 </tspan></text>
    <rect
       x="76.612"
       y="109.22"
       width="58.094002"
       height="48.062"
       ry="2.9734001"
       fill="#214478"
       style="paint-order:fill markers stroke"
       id="rect10" />
  </g>
  <path
     d="m 6.5330974,28.928585 c -3.2269,-1.2685 -1.4337,-4.6549 -0.83214,-13.542 0.4551,-6.7235001 4.1287,-10.7790001 7.6049996,-12.2060001 4.1355,-1.6971 5.524,-2.47769997 11.413,-3.05509997 5.889,-0.57742 4.5556,1.00069997 4.1023,1.43549997 -1.9492,1.8696 -3.5055,4.7604 -4.4722,7.4652 -1.7183,4.8074001 -0.80749,3.5194001 -2.6089,7.8271001 -1.80141,4.3077 -5.465,4.3049 -6.469,4.9946 -1.9323,1.3272 -3.0471,1.5903 -4.7571,4.4587 -2.9890996,5.0141 -1.9287996,2.1145 -3.9808996,2.6223 z"
     fill="#214478"
     fill-rule="evenodd"
     stroke="#042433"
     stroke-miterlimit="8"
     stroke-width="0"
     id="path105"
     style="fill:#2a484a;fill-opacity:1" />
  <path
     d="m 0.75309737,5.4645849 c 0.27633003,1.2934 0.49648003,2.5965 0.49085003,3.9228 0.0573,1.8323001 0.29826,3.6656001 0.0804,5.4952001 -0.0663,1.6143 -0.0763,3.239 -0.47445003,4.8167 -0.28658,2.218 -0.71742,4.4591 -0.48126,6.7003 0.17737,1.6011 1.05310003,3.3171 2.65150003,3.9179 0.99024,0.23374 1.9747,0.14433 2.9608,-0.41313 0.98603,-0.55745 2.8459,-0.15574 3.8127,0.19857 2.0388996,0.7472 9.4494996,-3.5452 2.7365996,-12.583 -0.7591,-1.036 -1.433,-2.0567 -2.227,-3.1361 -0.7940196,-1.0794 -1.8900996,-2.0629 -2.8364996,-3.0915 -1.9632,-1.9685001 -4.2892,-3.5822001 -5.9859,-5.8034001 -0.24694,-0.32776 -0.91770003,-0.96634 -0.72766003,-0.02434 z"
     fill="#5f8dd3"
     fill-rule="evenodd"
     stroke-miterlimit="8"
     stroke-width="0"
     id="path106"
     style="fill:#2a484a;fill-opacity:1;stroke:#ffffff;stroke-width:0.6;stroke-dasharray:none;stroke-opacity:1" />
  <g
     stroke-miterlimit="2.7"
     stroke-width="0"
     id="g111"
     transform="translate(-81.291902,-47.816416)">
    <text
       transform="rotate(-0.19346)"
       x="123.85416"
       y="136.55716"
       fill="#214478"
       font-family="'Century Gothic'"
       font-size="10.361px"
       font-weight="bold"
       stroke="#000000"
       stroke-dashoffset="0.1952"
       stroke-linecap="square"
       style="font-variant-ligatures:normal;font-variant-caps:normal;font-variant-numeric:normal;font-variant-east-asian:normal;white-space:pre;paint-order:fill markers stroke"
       xml:space="preserve"
       id="text110"><tspan
         x="123.85416"
         y="136.55716"
         fill="#214478"
         font-family="'Century Gothic'"
         font-weight="bold"
         stroke-width="0"
         style="font-variant-ligatures:normal;font-variant-caps:normal;font-variant-numeric:normal;font-variant-east-asian:normal"
         id="tspan110"><tspan
           font-size="10.361px"
           style="font-variant-ligatures:normal;font-variant-caps:normal;font-variant-numeric:normal;font-variant-east-asian:normal"
           id="tspan106">P</tspan><tspan
           font-size="12.38px"
           style="font-variant-ligatures:normal;font-variant-caps:normal;font-variant-numeric:normal;font-variant-east-asian:normal"
           id="tspan107">l</tspan><tspan
           font-size="10.361px"
           style="font-variant-ligatures:normal;font-variant-caps:normal;font-variant-numeric:normal;font-variant-east-asian:normal"
           id="tspan109">antWall<tspan
   fill="#214478"
   font-family="'Century Gothic'"
   font-size="10.361px"
   font-weight="bold"
   stroke-width="0"
   style="font-variant-ligatures:normal;font-variant-caps:normal;font-variant-numeric:normal;font-variant-east-asian:normal"
   id="tspan108">K</tspan></tspan></tspan></text>
    <path
       d="m 92.632,62.065 c 0.69435,-1.8887 1.6344,-4.0358 2.8303,-5.5141 1.1958,-1.4783 2.4286,-2.6104 3.9206,-3.6135 1.6006,-1.1372 3.3198,-2.1158 5.0652,-3.0209 0,0 2.206,-0.98391 1.175,-0.36079 -1.031,0.62313 -4.1318,2.4943 -6.0541,3.9399 -1.4525,1.1033 -2.6766,2.4678 -3.6523,3.9856 -0.70608,0.96569 -1.2826,2.0191 -1.6418,3.1533 -0.34758,0.87671 -0.63766,1.5393 -0.82233,2.4648 -0.04837,0.42539 -0.18407,0.11532 -0.35237,-0.03402 -0.29991,-0.26616 -0.33102,-0.67806 -0.46824,-1.0003 z"
       fill="#afc6e9"
       style="fill:#ffffff;fill-opacity:1;paint-order:fill markers stroke"
       id="path110" />
    <path
       d="m 88.937,64.386 c 0.88555,2.3161 1.0827,2.8956 1.3983,4.4677 0.31556,1.5721 0.34796,3.4565 -0.33701,4.9781 -0.68496,1.5215 -1.2788,0.83713 -1.6915,1.9248 0.68513,-0.37914 1.3739,0.55663 1.7427,0.86281 1.4297,-3.5057 1.4068,-3.9219 1.2799,-5.6149 -0.12684,-1.693 -0.36004,-2.4561 -0.60328,-3.377 -0.24324,-0.92091 -1.9004,-5.0927 -3.1573,-6.9052 -3.0373,-4.3797 -2.49,-3.91 -2.3578,-3.3499 0.1322,0.56008 2.7075,4.4843 3.7261,7.0136 z"
       fill="#214478"
       style="fill:#ffffff;fill-opacity:1;paint-order:fill markers stroke"
       id="path111" />
    <text
       transform="matrix(0.21546,0,0,0.21546,81.187842,92.842414)"
       fill="#939dac"
       font-family="'Century Gothic'"
       font-size="26.667px"
       font-weight="bold"
       stroke="#324278"
       stroke-dashoffset="0.1952"
       stroke-linecap="square"
       style="white-space:pre;shape-inside:url(#rect1-9-1);paint-order:fill markers stroke"
       xml:space="preserve"
       id="text111"><tspan
         x="0"
         y="0"
         id="tspan2">COST Action 24116 </tspan></text>
    <path
       id="path30"
       d="m -404.2118,68.839998 c 1.14101,-0.25322 2.39158,-0.45166 3.75377,-0.59532 1.36426,-0.14262 2.72852,-0.21497 4.09278,-0.21497 1.45727,0 2.89181,0.13539 4.30361,0.40514 1.41077,0.27079 2.67167,0.80202 3.78272,1.59577 1.11001,0.79168 2.01434,1.90893 2.71197,3.35277 0.6966,1.44177 1.04594,3.31969 1.04594,5.6348 0,2.09186 -0.29353,3.86849 -0.88057,5.32887 -0.58705,1.45831 -1.37253,2.6479 -2.35645,3.56774 -0.98185,0.91777 -2.1146,1.58337 -3.39824,1.99678 -1.28467,0.41134 -2.60862,0.61598 -3.97288,0.61598 -0.12713,0 -0.33383,0 -0.62012,0 -0.28422,0 -0.58498,-0.006 -0.90124,-0.0207 -0.31729,-0.0165 -0.62735,-0.0393 -0.93017,-0.0703 -0.30076,-0.0331 -0.5147,-0.0661 -0.64079,-0.0992 v 11.463902 h -5.99033 z m 5.99033,16.12304 c 0.19017,0.0641 0.54674,0.11989 1.07074,0.1695 0.52296,0.0475 0.88056,0.0703 1.07073,0.0703 0.6966,0 1.36219,-0.0951 1.99678,-0.28525 0.63355,-0.19017 1.19579,-0.5147 1.68672,-0.97565 0.49299,-0.45992 0.8816,-1.09348 1.16582,-1.9017 0.28629,-0.81028 0.42995,-1.83244 0.42995,-3.06751 0,-1.04696 -0.1354,-1.93477 -0.40515,-2.66237 -0.26768,-0.72967 -0.63148,-1.30845 -1.0914,-1.73633 -0.46096,-0.42995 -0.99219,-0.74 -1.59577,-0.93017 -0.60152,-0.19017 -1.23507,-0.28526 -1.90169,-0.28526 -0.98392,0 -1.79318,0.0806 -2.42673,0.23978 z m 22.35626,9.13226 c 0,1.11104 0.10955,1.90479 0.33073,2.38125 0.22324,0.47439 0.58807,0.71107 1.09554,0.71107 0.28628,0 0.57981,-0.031 0.88056,-0.0951 0.29973,-0.063 0.64079,-0.17466 1.02113,-0.33486 l 0.52503,4.568202 c -0.38034,0.25424 -1.03146,0.48989 -1.9513,0.71106 -0.92087,0.22325 -1.85622,0.33487 -2.80706,0.33487 -1.58544,0 -2.77399,-0.39584 -3.56774,-1.18649 -0.79169,-0.79375 -1.1865,-2.141472 -1.1865,-4.043172 v -28.63701 h 5.65961 z m 5.84873,-14.64717 c 0.95085,-0.5705 2.13941,-1.03042 3.56775,-1.38079 1.4273,-0.34933 3.04477,-0.52503 4.85345,-0.52503 2.69544,0 4.57336,0.69866 5.63479,2.09599 1.0604,1.39527 1.59164,3.37654 1.59164,5.94486 0,1.49138 -0.0403,2.95796 -0.11989,4.3987 -0.0775,1.44177 -0.13229,2.85254 -0.16537,4.23333 -0.031,1.37873 -0.007,2.70991 0.0703,3.99355 0.0796,1.28468 0.29455,2.499082 0.64492,3.642162 h -4.61367 l -0.90538,-2.902152 h -0.19017 c -0.50746,0.91777 -1.22163,1.678452 -2.14147,2.282032 -0.91777,0.60358 -2.07429,0.90537 -3.46852,0.90537 -1.87172,0 -3.34656,-0.62528 -4.4235,-1.87689 -1.07797,-1.253672 -1.61644,-2.927982 -1.61644,-5.022942 0,-2.85254 1.01389,-4.88033 3.04271,-6.08542 2.02778,-1.20716 4.77077,-1.71359 8.22688,-1.52135 0.15917,-1.84072 0.0414,-3.17294 -0.35553,-3.99769 -0.39687,-0.82373 -1.24643,-1.2361 -2.54661,-1.2361 -0.95085,0 -1.93373,0.11162 -2.94763,0.33486 -1.01492,0.22118 -1.91823,0.53743 -2.71198,0.95085 z m 6.80062,17.83457 c 0.8568,0 1.55443,-0.2129 2.09187,-0.64079 0.5395,-0.42994 0.93637,-0.89813 1.19062,-1.40559 v -3.94808 c -0.7276,-0.093 -1.42523,-0.10852 -2.09186,-0.0455 -0.66766,0.0641 -1.2547,0.20671 -1.76113,0.42995 -0.50747,0.22117 -0.91157,0.5457 -1.2113,0.97565 -0.30076,0.42788 -0.45062,0.97358 -0.45062,1.63711 0,0.98392 0.19637,1.73013 0.59118,2.23656 0.39687,0.50746 0.94361,0.76067 1.64124,0.76067 z m 24.59282,4.518592 V 87.340158 c 0,-1.7415 -0.20671,-2.96106 -0.62012,-3.65869 -0.41135,-0.6997 -1.10794,-1.05007 -2.09186,-1.05007 -0.82476,0 -1.53789,0.25528 -2.14147,0.76481 -0.60152,0.50746 -1.02836,1.14102 -1.28158,1.9017 v 16.503382 h -5.6596 V 78.017728 h 4.51858 l 0.6656,2.76159 h 0.14056 c 0.57051,-0.91984 1.34772,-1.70532 2.33164,-2.35645 0.98392,-0.65009 2.26756,-0.97565 3.85299,-0.97565 0.95085,0 1.79834,0.14366 2.54248,0.42995 0.74621,0.28732 1.37356,0.75551 1.88102,1.4056 0.50644,0.64802 0.88677,1.51929 1.14102,2.61276 0.25322,1.09451 0.38034,2.4505 0.38034,4.06797 v 15.837792 z m 7.70495,-23.783562 h 2.6169 v -4.46898 l 5.6596,-1.76113 v 6.23011 h 4.61367 v 5.04362 h -4.61367 v 10.36836 c 0,1.36426 0.13332,2.33164 0.40101,2.90215 0.26975,0.5705 0.75447,0.85576 1.45521,0.85576 0.47335,0 0.90124,-0.0465 1.28157,-0.14056 0.38034,-0.0961 0.79168,-0.23978 1.2361,-0.42995 l 0.7152,4.518592 c -0.69763,0.34726 -1.50688,0.63975 -2.42672,0.87643 -0.91778,0.23978 -1.88516,0.35967 -2.90215,0.35967 -1.80557,0 -3.16053,-0.52297 -4.06383,-1.56683 -0.90434,-1.046972 -1.35599,-2.808102 -1.35599,-5.283402 v -12.46022 h -2.6169 z m 23.40219,8.80153 0.47542,5.99446 h 0.19017 l 0.5209,-6.08955 4.47311,-18.21904 h 4.18373 l 4.32841,18.31413 0.52504,5.99446 h 0.19017 l 0.5209,-6.08955 2.94762,-18.21904 h 6.08955 l -7.46621,33.535942 h -4.23334 l -4.66328,-18.359602 -0.61598,-5.18418 h -0.23978 l -0.57051,5.22965 -4.65914,18.314132 h -4.4235 l -7.42074,-33.535942 h 6.61045 z m 24.49773,-7.37113 c 0.95084,-0.5705 2.1394,-1.03042 3.56774,-1.38079 1.4273,-0.34933 3.04477,-0.52503 4.85345,-0.52503 2.69544,0 4.57336,0.69866 5.6348,2.09599 1.0604,1.39527 1.59163,3.37654 1.59163,5.94486 0,1.49138 -0.0403,2.95796 -0.11989,4.3987 -0.0775,1.44177 -0.13229,2.85254 -0.16536,4.23333 -0.031,1.37873 -0.007,2.70991 0.0703,3.99355 0.0796,1.28468 0.29455,2.499082 0.64492,3.642162 h -4.61367 l -0.90537,-2.902152 h -0.19017 c -0.50746,0.91777 -1.22163,1.678452 -2.14147,2.282032 -0.91778,0.60358 -2.0743,0.90537 -3.46853,0.90537 -1.87171,0 -3.34656,-0.62528 -4.4235,-1.87689 -1.07797,-1.253672 -1.61644,-2.927982 -1.61644,-5.022942 0,-2.85254 1.01389,-4.88033 3.04271,-6.08542 2.02778,-1.20716 4.77077,-1.71359 8.22689,-1.52135 0.15916,-1.84072 0.0413,-3.17294 -0.35553,-3.99769 -0.39688,-0.82373 -1.24644,-1.2361 -2.54662,-1.2361 -0.95085,0 -1.93373,0.11162 -2.94762,0.33486 -1.01493,0.22118 -1.91823,0.53743 -2.71198,0.95085 z m 6.80062,17.83457 c 0.85679,0 1.55442,-0.2129 2.09186,-0.64079 0.5395,-0.42994 0.93638,-0.89813 1.19062,-1.40559 v -3.94808 c -0.7276,-0.093 -1.42523,-0.10852 -2.09186,-0.0455 -0.66766,0.0641 -1.2547,0.20671 -1.76113,0.42995 -0.50746,0.22117 -0.91157,0.5457 -1.2113,0.97565 -0.30075,0.42788 -0.45061,0.97358 -0.45061,1.63711 0,0.98392 0.19637,1.73013 0.59117,2.23656 0.39688,0.50746 0.94361,0.76067 1.64125,0.76067 z m 18.55183,-3.1874 c 0,1.11104 0.10956,1.90479 0.33073,2.38125 0.22325,0.47439 0.58808,0.71107 1.09554,0.71107 0.28629,0 0.57982,-0.031 0.88057,-0.0951 0.29973,-0.063 0.64079,-0.17466 1.02113,-0.33486 l 0.52503,4.568202 c -0.38034,0.25424 -1.03146,0.48989 -1.9513,0.71106 -0.92088,0.22325 -1.85622,0.33487 -2.80707,0.33487 -1.58543,0 -2.77399,-0.39584 -3.56774,-1.18649 -0.79168,-0.79375 -1.18649,-2.141472 -1.18649,-4.043172 v -28.63701 h 5.6596 z m 11.55796,0 c 0,1.11104 0.10955,1.90479 0.33072,2.38125 0.22325,0.47439 0.58808,0.71107 1.09555,0.71107 0.28628,0 0.5798,-0.031 0.88056,-0.0951 0.29972,-0.063 0.64079,-0.17466 1.02113,-0.33486 l 0.52503,4.568202 c -0.38034,0.25424 -1.03146,0.48989 -1.9513,0.71106 -0.92088,0.22325 -1.85622,0.33487 -2.80707,0.33487 -1.58543,0 -2.77399,-0.39584 -3.56774,-1.18649 -0.79168,-0.79375 -1.18649,-2.141472 -1.18649,-4.043172 v -28.63701 h 5.65961 z m 13.17439,-6.56497 h -1.28572 v 14.270962 h -5.99033 V 68.505128 h 5.99033 v 14.796 l 1.19063,-0.57464 6.99079,-14.22136 h 6.75514 l -7.6109,14.03119 -2.23656,1.76113 2.28616,1.80661 8.7974,15.697232 h -7.32565 z m 0,0"
       style="fill:#2a484a;fill-opacity:1;fill-rule:nonzero;stroke:none;stroke-width:0"
       aria-label="PlantWallK"
       inkscape:export-filename="..\Desktop\Nouveau dossier (2)\logo_1.svg"
       inkscape:export-xdpi="96"
       inkscape:export-ydpi="96" />
  </g>
</svg>
